<svg width="1931" height="417" viewBox="0 0 1931 417" fill="none" xmlns="http://www.w3.org/2000/svg">
<path d="M145.385 354C106.826 354 69.8471 338.671 42.5822 311.384C15.3173 284.097 -1.07262e-06 247.089 0 208.5C1.07262e-06 169.911 15.3173 132.902 42.5822 105.616C69.8471 78.3294 106.826 63 145.385 63L145.385 354Z" fill="black"/>
<path d="M302 354C263.442 354 226.462 338.671 199.197 311.384C171.933 284.097 156.615 247.089 156.615 208.5C156.615 169.911 171.933 132.902 199.197 105.616C226.462 78.3294 263.442 63 302 63V354Z" fill="black"/>
<path d="M628 131.6C627.333 144.267 622.733 154.867 614.2 163.4C605.667 171.933 593.067 178.333 576.4 182.6C559.867 186.867 538.933 189 513.6 189C494.267 189 476.933 187.933 461.6 185.8C446.267 183.8 433.2 180.333 422.4 175.4C411.6 170.333 403.333 163.467 397.6 154.8C391.867 146.133 389 135.2 389 122C389 108.8 391.867 97.8 397.6 89C403.333 80.0667 411.6 73 422.4 67.8C433.2 62.4667 446.267 58.6667 461.6 56.4C476.933 54.1333 494.267 53 513.6 53C538.933 53 559.933 55.3333 576.6 60C593.267 64.5333 605.867 71.2667 614.4 80.2C622.933 89.1333 627.533 100 628.2 112.8H576.2C574.6 108.533 571.667 104.8 567.4 101.6C563.133 98.2667 556.733 95.6667 548.2 93.8C539.667 91.9333 528.133 91 513.6 91C496.533 91 482.667 92.0667 472 94.2C461.333 96.2 453.533 99.4667 448.6 104C443.667 108.533 441.2 114.533 441.2 122C441.2 128.8 443.667 134.333 448.6 138.6C453.533 142.867 461.333 146 472 148C482.667 150 496.533 151 513.6 151C528.133 151 539.6 150.133 548 148.4C556.533 146.667 562.933 144.333 567.2 141.4C571.467 138.333 574.4 135.067 576 131.6H628ZM773.281 189C744.215 189 720.815 186.467 703.081 181.4C685.348 176.2 672.415 168.6 664.281 158.6C656.281 148.467 652.281 135.933 652.281 121C652.281 106.067 656.281 93.6 664.281 83.6C672.415 73.4667 685.348 65.8667 703.081 60.8C720.815 55.6 744.215 53 773.281 53C802.348 53 825.748 55.6 843.481 60.8C861.215 65.8667 874.081 73.4667 882.081 83.6C890.215 93.6 894.281 106.067 894.281 121C894.281 135.933 890.215 148.467 882.081 158.6C874.081 168.6 861.215 176.2 843.481 181.4C825.748 186.467 802.348 189 773.281 189ZM773.281 151C787.015 151 798.881 150.2 808.881 148.6C818.881 146.867 826.615 143.867 832.081 139.6C837.548 135.2 840.281 129 840.281 121C840.281 113 837.548 106.867 832.081 102.6C826.615 98.2 818.881 95.2 808.881 93.6C798.881 91.8667 787.015 91 773.281 91C759.548 91 747.481 91.8667 737.081 93.6C726.815 95.2 718.748 98.2 712.881 102.6C707.148 106.867 704.281 113 704.281 121C704.281 129 707.148 135.2 712.881 139.6C718.748 143.867 726.815 146.867 737.081 148.6C747.481 150.2 759.548 151 773.281 151ZM970.297 57V147H1086.9V185H920.297V57H970.297ZM1221.91 189C1192.85 189 1169.45 186.467 1151.71 181.4C1133.98 176.2 1121.05 168.6 1112.91 158.6C1104.91 148.467 1100.91 135.933 1100.91 121C1100.91 106.067 1104.91 93.6 1112.91 83.6C1121.05 73.4667 1133.98 65.8667 1151.71 60.8C1169.45 55.6 1192.85 53 1221.91 53C1250.98 53 1274.38 55.6 1292.11 60.8C1309.85 65.8667 1322.71 73.4667 1330.71 83.6C1338.85 93.6 1342.91 106.067 1342.91 121C1342.91 135.933 1338.85 148.467 1330.71 158.6C1322.71 168.6 1309.85 176.2 1292.11 181.4C1274.38 186.467 1250.98 189 1221.91 189ZM1221.91 151C1235.65 151 1247.51 150.2 1257.51 148.6C1267.51 146.867 1275.25 143.867 1280.71 139.6C1286.18 135.2 1288.91 129 1288.91 121C1288.91 113 1286.18 106.867 1280.71 102.6C1275.25 98.2 1267.51 95.2 1257.51 93.6C1247.51 91.8667 1235.65 91 1221.91 91C1208.18 91 1196.11 91.8667 1185.71 93.6C1175.45 95.2 1167.38 98.2 1161.51 102.6C1155.78 106.867 1152.91 113 1152.91 121C1152.91 129 1155.78 135.2 1161.51 139.6C1167.38 143.867 1175.45 146.867 1185.71 148.6C1196.11 150.2 1208.18 151 1221.91 151ZM1569.53 145.8L1550.93 156.4V57H1600.93V185H1550.93L1400.33 97.8L1418.93 87V185H1368.93V57H1418.93L1569.53 145.8ZM1631.89 57H1681.89V185H1631.89V57ZM1745.68 165.6V135.6H1882.48V165.6H1745.68ZM1700.88 185L1786.68 57H1842.28L1928.88 185H1873.88L1799.68 70.4H1829.48L1755.88 185H1700.88Z" fill="black"/>
<path d="M535.2 316.6C533.867 326.6 530.333 335.2 524.6 342.4C518.867 349.467 511.2 354.933 501.6 358.8C492.133 362.533 481.067 364.4 468.4 364.4C457.467 364.4 447.4 362.933 438.2 360C429.133 357.067 421.2 352.8 414.4 347.2C407.733 341.467 402.533 334.467 398.8 326.2C395.2 317.8 393.4 308.2 393.4 297.4C393.4 286.467 395.2 276.867 398.8 268.6C402.533 260.333 407.733 253.333 414.4 247.6C421.2 241.733 429.133 237.333 438.2 234.4C447.4 231.467 457.467 230 468.4 230C481.2 230 492.333 231.933 501.8 235.8C511.4 239.667 519.067 245.2 524.8 252.4C530.533 259.6 534 268.267 535.2 278.4H513.2C511.333 272.4 508.4 267.333 504.4 263.2C500.4 258.933 495.333 255.667 489.2 253.4C483.2 251.133 476.267 250 468.4 250C458.533 250 449.667 251.867 441.8 255.6C433.933 259.2 427.733 264.533 423.2 271.6C418.8 278.533 416.6 287.133 416.6 297.4C416.6 307.533 418.8 316.133 423.2 323.2C427.733 330.133 433.933 335.4 441.8 339C449.667 342.6 458.533 344.4 468.4 344.4C476.267 344.4 483.2 343.333 489.2 341.2C495.2 338.933 500.2 335.733 504.2 331.6C508.2 327.333 511.133 322.333 513 316.6H535.2ZM584.095 232.4V342.4H664.895V362H561.295V232.4H584.095ZM753.952 364.4C738.752 364.4 725.485 361.667 714.152 356.2C702.952 350.733 694.218 343 687.952 333C681.818 323 678.752 311.067 678.752 297.2C678.752 283.333 681.818 271.4 687.952 261.4C694.218 251.267 702.952 243.533 714.152 238.2C725.485 232.733 738.752 230 753.952 230C769.285 230 782.552 232.733 793.752 238.2C804.952 243.533 813.618 251.267 819.752 261.4C826.018 271.4 829.152 283.333 829.152 297.2C829.152 311.067 826.018 323 819.752 333C813.618 343 804.952 350.733 793.752 356.2C782.552 361.667 769.285 364.4 753.952 364.4ZM753.952 344.4C764.085 344.4 773.018 342.667 780.752 339.2C788.485 335.733 794.552 330.533 798.952 323.6C803.485 316.533 805.752 307.733 805.752 297.2C805.752 286.8 803.485 278.133 798.952 271.2C794.552 264.133 788.485 258.867 780.752 255.4C773.018 251.8 764.085 250 753.952 250C743.952 250 735.018 251.8 727.152 255.4C719.285 258.867 713.085 264.133 708.552 271.2C704.018 278.133 701.752 286.8 701.752 297.2C701.752 307.733 704.018 316.533 708.552 323.6C713.085 330.533 719.285 335.733 727.152 339.2C735.018 342.667 743.952 344.4 753.952 344.4ZM963.841 307.4V232.4H986.441V309.2C986.441 317.333 985.307 324.467 983.041 330.6C980.907 336.733 977.841 341.933 973.841 346.2C969.841 350.467 965.107 354 959.641 356.8C954.174 359.467 948.174 361.4 941.641 362.6C935.241 363.8 928.441 364.4 921.241 364.4C913.774 364.4 906.707 363.8 900.041 362.6C893.374 361.4 887.307 359.467 881.841 356.8C876.374 354 871.641 350.467 867.641 346.2C863.774 341.933 860.707 336.733 858.441 330.6C856.307 324.467 855.241 317.333 855.241 309.2V232.4H878.041V307.4C878.041 317.533 879.907 325.267 883.641 330.6C887.507 335.8 892.707 339.4 899.241 341.4C905.774 343.4 913.107 344.4 921.241 344.4C929.107 344.4 936.241 343.4 942.641 341.4C949.041 339.4 954.174 335.8 958.041 330.6C961.907 325.267 963.841 317.533 963.841 307.4ZM1079.75 232.4C1093.75 232.4 1105.48 234.133 1114.95 237.6C1124.41 241.067 1131.95 245.8 1137.55 251.8C1143.15 257.667 1147.15 264.467 1149.55 272.2C1152.08 279.933 1153.35 288.067 1153.35 296.6C1153.35 305.267 1152.01 313.533 1149.35 321.4C1146.68 329.267 1142.41 336.267 1136.55 342.4C1130.81 348.4 1123.28 353.2 1113.95 356.8C1104.61 360.267 1093.21 362 1079.75 362H1017.55V232.4H1079.75ZM1040.35 342H1079.55C1089.41 342 1097.61 340.733 1104.15 338.2C1110.68 335.667 1115.88 332.267 1119.75 328C1123.61 323.6 1126.35 318.733 1127.95 313.4C1129.55 307.933 1130.35 302.333 1130.35 296.6C1130.35 290.867 1129.55 285.4 1127.95 280.2C1126.35 274.867 1123.61 270.133 1119.75 266C1115.88 261.733 1110.68 258.4 1104.15 256C1097.61 253.467 1089.41 252.2 1079.55 252.2H1040.35V342Z" fill="black"/>
</svg>
